<svg enable-background="new 0 0 508.1 508.1" viewBox="0 0 508.1 508.1" xmlns="http://www.w3.org/2000/svg"><path d="m150.15 483.1s11.5-10.4 10.9-32.8c0 0-49.7 46.8-86.5 50.8 0 0-2.9-10.9 6.9-33.9 0 0-37.7 7.1-54.7 13.9 6.9-16.8 14-54.5 14-54.5-22.9 9.9-33.9 6.9-33.9 6.9 4-36.8 50.8-86.5 50.8-86.5-22.4-.5-32.8 10.9-32.8 10.9-11.6-65.2 75.5-65.6 75.5-65.6l115.3 115.3c.1.1-.4 87-65.5 75.5z" fill="#f6b44b"/><path d="m103.65 295.6c-13.8.9-41.2 5.7-54.1 21.2-3.8 4.5-6.1 9.7-7.1 15.6 6.1-2.1 13.7-3.7 23-3.5l23.7.6-16.2 17.3c-10.6 11.2-36.1 42.2-45 68 4.2-.9 9.6-2.5 16.2-5.4l18.2-7.8-3.7 19.5c-.2 1.1-3.7 19.4-8.2 36.5 17-4.5 35.4-7.9 36.5-8.1l19.5-3.7-7.8 18.2c-2.8 6.6-4.5 12-5.4 16.2 25.8-9 56.8-34.5 68-45l17.3-16.2.6 23.7c.2 9.3-1.3 16.9-3.4 23 5.9-1 11-3.3 15.5-7.1 16.8-14 20.4-43.2 21.2-54.2z" fill="#ffd15c"/><path d="m305.45 202.6c-42.8-42.8-101.7-59.5-157.1-50.2-35.6 6-69.7 22.7-97.1 50.2-29.4 29.4-46.4 66.5-51.2 104.8 2.2-2.6 4.6-5.3 7.2-7.8 25.1-25.1 57.2-38.8 90.1-41.2 39.8-3 80.7 10.8 111.2 41.2s44.2 71.3 41.2 111.2c-2.4 32.8-16.1 65-41.2 90.1-2.5 2.5-5.2 4.9-7.8 7.2 38.3-4.8 75.4-21.8 104.8-51.2 27.5-27.5 44.2-61.6 50.2-97.1 9.2-55.5-7.6-114.5-50.3-157.2z" fill="#41596b"/><path d="m459.95 0c-24.9 0-49.3 2.5-72.8 7.2-143.7 28.9-257 141.7-286.8 285.1l115.5 115.5c143.3-29.9 256.2-143.1 285-286.8 4.7-23.5 7.2-47.9 7.2-72.8v-48.2z" fill="#f2705b"/><path d="m397.55 110.5c-31.4-31.4-82.3-31.4-113.7 0-15.7 15.7-23.6 36.3-23.5 56.9.1 20.5 7.9 41.1 23.5 56.7s36.1 23.5 56.6 23.6c20.7.1 41.3-7.8 57-23.6 31.5-31.3 31.5-82.2.1-113.6z" fill="#fff"/><circle cx="340.75" cy="167.3" fill="#89d6f7" r="53.5"/><path d="m500.85 120.9-113.7-113.7c23.5-4.7 47.8-7.2 72.8-7.2h48.1v48.1c0 24.9-2.5 49.3-7.2 72.8z" fill="#334a5e"/></svg>