<svg height="512" viewBox="0 0 64 64" width="512" xmlns="http://www.w3.org/2000/svg"><g id="processor-robotics-brain-technology-artificial_intelligence" data-name="processor-robotics-brain-technology-artificial intelligence"><g fill="#78b9eb"><circle cx="59" cy="35" r="2"/><circle cx="59" cy="27" r="2"/><circle cx="59" cy="19" r="2"/><circle cx="49" cy="5" r="2"/><path d="m33 41v8l-9 12h-5v-9.98l6-4.46v-5.56h1.1z"/><path d="m32 13h7 7 7v6 8 5.72 2.28 6h-3-4-4-4-.55-1.45v-4h3 10v-5-15h-20v7h-4v-11z"/><circle cx="29" cy="5" r="2"/><circle cx="39" cy="5" r="2"/></g><path d="m56.18 28a3 3 0 1 0 0-2h-2.18v-6h2.18a3 3 0 1 0 0-2h-2.18v-5a1 1 0 0 0 -1-1h-6v-1.28l2.32-.77a1.014 1.014 0 0 0 .68-.95v-1.18a3 3 0 1 0 -2 0v.46l-2.32.77a1.014 1.014 0 0 0 -.68.95v2h-5v-4.18a3 3 0 1 0 -2 0v4.18h-5v-2a1.014 1.014 0 0 0 -.68-.95l-2.32-.77v-.46a3 3 0 1 0 -2 0v1.18a1.014 1.014 0 0 0 .68.95l2.32.77v1.28h-6a1 1 0 0 0 -1 1v10h-1v-15a1 1 0 0 0 -1-1 14.015 14.015 0 0 0 -14 14v6.59l-5.71 5.7a1.033 1.033 0 0 0 -.29.71v3a1 1 0 0 0 1 1h5v16a1 1 0 0 0 1 1h6a1.029 1.029 0 0 0 .6-.2l2.4-1.79v7.99a1 1 0 0 0 1 1h5a1.014 1.014 0 0 0 .8-.4l9-12a.984.984 0 0 0 .2-.6v-7h3v19a1 1 0 0 0 1 1h24v-2h-23v-18h2v15a1 1 0 0 0 1 1h15v-2h-14v-14h2v11a1 1 0 0 0 1 1h16v-2h-15v-10h2v7a1 1 0 0 0 1 1h7v-2h-6v-6h2a1 1 0 0 0 1-1v-5h2.18a3 3 0 1 0 0-2h-2.18v-6zm2.82-2a1 1 0 1 1 -1 1 1 1 0 0 1 1-1zm0-8a1 1 0 1 1 -1 1 1 1 0 0 1 1-1zm-10-14a1 1 0 1 1 -1 1 1 1 0 0 1 1-1zm-20 2a1 1 0 1 1 1-1 1 1 0 0 1 -1 1zm10-2a1 1 0 1 1 -1 1 1 1 0 0 1 1-1zm-7 44.67-8.5 11.33h-3.5v-8.47l5.6-4.17a1 1 0 0 0 .4-.8v-4.56h6zm3-8.67h-10a1 1 0 0 0 -1 1v5.06l-9.33 6.94h-4.67v-16a1 1 0 0 0 -1-1h-5v-1.59l5.71-5.7a1.033 1.033 0 0 0 .29-.71v-7a12.018 12.018 0 0 1 11-11.96v14.96a1 1 0 0 0 1 1h13zm1-17h-6v-5h18v18h-11v-12a1 1 0 0 0 -1-1zm16 17h-15v-2h12a1 1 0 0 0 1-1v-20a1 1 0 0 0 -1-1h-20a1 1 0 0 0 -1 1v6h-2v-9h26zm7-6a1 1 0 1 1 -1 1 1 1 0 0 1 1-1z" fill="#006df0"/></g></svg>