<svg height="512pt" viewBox="0 0 512 512" width="512pt" xmlns="http://www.w3.org/2000/svg"><path d="m374.84375 504.5h-237.710938c-11.042968 0-20-8.953125-20-20v-457c0-11.046875 8.957032-20 20-20h237.710938c11.042969 0 20 8.953125 20 20v457c0 11.046875-8.957031 20-20 20zm0 0" fill="#557983"/><path d="m394.839844 27.5v457c0 11.050781-8.953125 20-20 20h-26.59375c11.042968 0 20-8.949219 20-20v-457c0-11.050781-8.957032-20-20-20h26.59375c11.046875 0 20 8.949219 20 20zm0 0" fill="#3f5959"/><path d="m504.480469 43.101562v425.796876c0 14.550781-15.050781 24.230468-28.300781 18.191406l-81.339844-37.089844v-388l81.339844-37.089844c13.25-6.039062 28.300781 3.640625 28.300781 18.191406zm0 0" fill="#00d2f9"/><path d="m504.480469 43.101562v425.796876c0 14.550781-15.050781 24.230468-28.300781 18.191406l-7.710938-3.511719c3.890625-3.566406 6.421875-8.71875 6.421875-14.679687v-425.796876c0-5.960937-2.53125-11.113281-6.421875-14.679687l7.710938-3.511719c13.25-6.039062 28.300781 3.640625 28.300781 18.191406zm0 0" fill="#00abef"/><path d="m504.480469 230.488281v238.410157c0 14.550781-15.050781 24.230468-28.300781 18.191406l-7.710938-3.511719-73.628906-33.578125v-274.421875c16.589844-.339844 34.660156 4.992187 54.820312 18.421875 8.828125 5.878906 17.230469 11.480469 25.230469 16.800781 10.558594 7.027344 20.410156 13.589844 29.589844 19.6875zm0 0" fill="#00d292"/><path d="m504.480469 343.328125v125.570313c0 14.550781-15.050781 24.230468-28.300781 18.191406l-7.710938-3.511719-73.628906-33.578125v-90.949219c41.050781-12.160156 79.582031-23.289062 109.640625-15.722656zm0 0" fill="#0057a1"/><path d="m504.480469 230.488281v238.410157c0 14.550781-15.050781 24.230468-28.300781 18.191406l-7.710938-3.511719c3.890625-3.566406 6.421875-8.71875 6.421875-14.679687v-258.097657c10.558594 7.027344 20.410156 13.589844 29.589844 19.6875zm0 0" fill="#00b27c"/><path d="m504.480469 343.328125v125.570313c0 14.550781-15.050781 24.230468-28.300781 18.191406l-7.710938-3.511719c3.890625-3.566406 6.421875-8.71875 6.421875-14.679687v-127.777344c10.539063-.660156 20.460937-.089844 29.589844 2.207031zm0 0" fill="#004480"/><path d="m117.140625 62v388l-81.339844 37.089844c-13.25 6.039062-28.300781-3.640625-28.300781-18.191406v-425.796876c0-14.550781 15.050781-24.230468 28.300781-18.191406zm0 0" fill="#9de7fc"/><path d="m117.140625 219.550781v230.449219l-81.339844 37.089844c-13.25 6.039062-28.300781-3.640625-28.300781-18.191406v-255.058594c29.328125-5.761719 66.960938-7.019532 109.640625 5.710937zm0 0" fill="#ffb54e"/><path d="m117.140625 278.921875v171.078125l-81.339844 37.089844c-13.25 6.039062-28.300781-3.640625-28.300781-18.191406v-147.027344c27.210938-25.78125 64.730469-48.519532 109.640625-42.949219zm0 0" fill="#00f2a9"/><path d="m7.5 366.5c25.449219-12.929688 65.878906-29.351562 109.640625-31.148438v114.648438l-81.339844 37.089844c-13.25 6.039062-28.300781-3.640625-28.300781-18.191406zm0 0" fill="#1475cc"/><path d="m394.839844 62v388c0 11.050781-8.949219 20-20 20h-237.699219c-11.050781 0-20-8.949219-20-20v-388c0-11.050781 8.949219-20 20-20h237.699219c11.050781 0 20 8.949219 20 20zm0 0" fill="#9de7fc"/><path d="m394.839844 62v388c0 11.050781-8.949219 20-20 20h-6.589844v-428h6.589844c11.050781 0 20 8.949219 20 20zm0 0" fill="#00d2f9"/><path d="m394.839844 189.171875v260.828125c0 11.050781-8.949219 20-20 20h-237.699219c-11.050781 0-20-8.949219-20-20v-222.96875c46.488281.480469 113.238281-7.242188 149.847656-49.953125 32.5-37.917969 69.703125-36.476563 101.261719-13.667969 9.460938 6.820313 18.421875 15.578125 26.589844 25.761719zm0 0" fill="#ff6a3d"/><path d="m394.839844 189.171875v260.828125c0 11.050781-8.949219 20-20 20h-6.589844v-306.589844c9.460938 6.820313 18.421875 15.578125 26.589844 25.761719zm0 0" fill="#ed462f"/><path d="m394.839844 442.558594v7.441406c0 11.050781-8.949219 20-20 20h-237.699219c-11.050781 0-20-8.949219-20-20v-230.449219c27.789063 8.277344 57.71875 22.488281 88.890625 45.238281 80.128906 58.492188 145.890625 127.539063 188.808594 177.769532zm0 0" fill="#ffb54e"/><path d="m394.839844 175.578125v274.421875c0 11.050781-8.949219 20-20 20h-237.699219c-11.050781 0-20-8.949219-20-20v-171.078125c13.25 1.636719 27.160156 5.757813 41.628906 12.988281 100.53125 50.21875 147.070313-114.53125 236.070313-116.332031zm0 0" fill="#00f2a9"/><path d="m394.839844 359.050781v90.949219c0 11.050781-8.949219 20-20 20h-237.699219c-11.050781 0-20-8.949219-20-20v-114.648438c31.859375-1.320312 65.480469 5.097657 96.390625 26.226563 52.890625 36.171875 119.929688 15.660156 181.308594-2.527344zm0 0" fill="#1475cc"/><path d="m394.839844 175.578125v274.421875c0 11.050781-8.949219 20-20 20h-6.589844v-288.949219c8.46875-3.320312 17.300781-5.28125 26.589844-5.472656zm0 0" fill="#00d292"/><path d="m394.839844 359.050781v90.949219c0 11.050781-8.949219 20-20 20h-6.589844v-103.191406c8.941406-2.519532 17.820312-5.160156 26.589844-7.757813zm0 0" fill="#0057a1"/><path d="m511.980469 43.101562c0-9.398437-4.71875-18.046874-12.628907-23.128906-7.90625-5.085937-17.730468-5.789062-26.28125-1.890625l-18.929687 8.632813c-3.769531 1.71875-5.433594 6.167968-3.714844 9.9375 1.722657 3.769531 6.167969 5.429687 9.9375 3.710937l18.929688-8.632812c3.945312-1.800781 8.300781-1.488281 11.949219.859375 3.644531 2.34375 5.738281 6.175781 5.738281 10.511718v173.390626c-13.117188-8.726563-27.464844-18.277344-43.164063-28.734376-17.761718-11.832031-34.703125-18.230468-51.476562-19.460937v-101.476563l23.5-10.714843c3.769531-1.71875 5.429687-6.167969 3.710937-9.9375-1.71875-3.765625-6.164062-5.429688-9.9375-3.710938l-17.273437 7.878907v-22.835938c0-15.164062-12.335938-27.5-27.5-27.5h-237.707032c-15.164062 0-27.5 12.335938-27.5 27.5v22.835938l-70.722656-32.253907c-8.554687-3.902343-18.378906-3.191406-26.28125 1.890625-7.910156 5.082032-12.628906 13.730469-12.628906 23.128906v425.796876c0 9.398437 4.71875 18.046874 12.628906 23.128906 4.519532 2.910156 9.671875 4.386718 14.855469 4.386718 3.875 0 7.769531-.824218 11.425781-2.492187l70.722656-32.253906v22.832031c0 15.164062 12.335938 27.5 27.5 27.5h237.710938c15.160156 0 27.5-12.335938 27.5-27.5v-22.835938l70.726562 32.253907c3.660157 1.671875 7.550782 2.496093 11.425782 2.496093 5.183594-.003906 10.335937-1.476562 14.859375-4.386718 7.90625-5.082032 12.625-13.730469 12.625-23.128906zm-66.476563 157.140626c19.085938 12.710937 36.179688 24.089843 51.476563 34.265624v99.769532c-28.167969-3.78125-61.589844 5.042968-94.636719 14.738281v-165.660156c13.828125 1.253906 28.015625 6.800781 43.160156 16.886719zm-320.867187 72.242187v-42.640625c26.082031 8.972656 51.933593 22.726562 76.972656 41.003906 7.394531 5.394532 14.875 11.042969 22.324219 16.847656-20.523438 9.070313-40.324219 8.238282-61.808594-2.496093-12.417969-6.203125-25-10.464844-37.488281-12.714844zm113.597656 7.375c-9.242187-7.304687-18.578125-14.410156-27.78125-21.128906-14.335937-10.460938-28.949219-19.511719-43.742187-27.125 58.527343-7.984375 89.730468-30.695313 105.972656-49.644531 14.695312-17.144532 30.804687-26.277344 47.886718-27.15625 15.707032-.792969 32.117188 5.460937 47.855469 18.171874-29.480469 10.429688-54.324219 35.886719-78.523437 60.6875-16.621094 17.035157-33.734375 34.558594-51.667969 46.195313zm149.109375-111.285156c-.363281.042969-.722656.089843-1.078125.136719-.066406-.066407-.125-.136719-.191406-.199219-20.96875-19.914063-43.878907-29.851563-66.273438-28.683594-21.347656 1.09375-41.03125 11.984375-58.503906 32.371094-30.132813 35.152343-83.039063 44.925781-122.359375 46.90625-4.757812-1.839844-9.523438-3.539063-14.300781-5.078125v-151.773438c0-.066406 0-.128906 0-.191406v-.0625c0-6.894531 5.605469-12.5 12.5-12.5h237.707031c6.890625 0 12.5 5.605469 12.5 12.5zm-277.710938 102.164062c-19.167968-.996093-38.308593 2.703125-57.007812 11.050781-12.773438 5.703126-25.378906 13.589844-37.625 23.523438v-85.207031c31.285156-5.234375 63.0625-3.511719 94.632812 5.117187zm-94.632812 54.398438c30.53125-28.105469 62.320312-41.339844 94.632812-39.378907v42.527344c-36.34375 2.765625-69.890624 14.742188-94.632812 26.234375zm109.636719-37.375c10.214843 2.105469 20.535156 5.738281 30.78125 10.855469 13.757812 6.875 27.214843 10.3125 40.558593 10.3125 13.71875 0 27.316407-3.632813 40.988282-10.902344 23.050781-12.253906 43.699218-33.417969 63.671875-53.886719 28.074219-28.769531 54.707031-56.042969 86.707031-60.441406v169.75c-59.695312 17.683593-121.121094 35.078125-169.582031 1.941406-27.019531-18.472656-58.320313-27.769531-93.125-27.699219zm12.496093-272.761719h237.710938c6.890625 0 12.5 5.605469 12.5 12.5v10.019531c-3.753906-1.925781-8-3.019531-12.5-3.019531h-237.707031c-4.5 0-8.75 1.09375-12.503907 3.019531v-10.019531c0-6.894531 5.609376-12.5 12.5-12.5zm-116.394531 17.589844c3.648438-2.347656 8.003907-2.660156 11.949219-.859375l76.945312 35.089843v142.894532c-31.554687-8.078125-63.300781-9.6875-94.632812-4.789063v-161.824219c0-4.335937 2.09375-8.167968 5.738281-10.511718zm11.949219 447.679687c-3.945312 1.800781-8.300781 1.488281-11.949219-.859375-3.644531-2.34375-5.738281-6.175781-5.738281-10.511718v-97.757813c23.703125-11.632813 57.714844-24.796875 94.632812-27.816406v101.855469zm342.15625 16.730469h-237.710938c-6.890624 0-12.5-5.605469-12.5-12.5v-10.019531c3.753907 1.925781 8.003907 3.019531 12.503907 3.019531h164.59375c4.140625 0 7.5-3.355469 7.5-7.5s-3.359375-7.5-7.5-7.5h-164.59375c-6.894531 0-12.5-5.605469-12.5-12.5v-.0625c0-.0625 0-.125 0-.191406v-107.054688c31.742187-.058594 60.195312 8.355469 84.660156 25.078125 22.773437 15.578125 47.925781 21.230469 73.910156 21.230469 34.464844 0 70.386719-9.949219 104.136719-19.90625v80.90625c0 6.894531-5.609375 12.5-12.5 12.5h-38.589844c-4.144531 0-7.5 3.355469-7.5 7.5s3.355469 7.5 7.5 7.5h38.589844c4.5 0 8.746094-1.09375 12.5-3.019531v10.019531c0 6.894531-5.609375 12.5-12.5 12.5zm116.398438-17.589844c-3.648438 2.347656-8.003907 2.660156-11.949219.859375l-76.949219-35.09375v-80.523437c33.75-9.96875 68.078125-19.519532 94.636719-15.210938v119.453125c0 4.339844-2.09375 8.171875-5.738281 10.515625zm0 0"/><path d="m186.707031 77.460938h-33c-4.144531 0-7.5 3.359374-7.5 7.5 0 4.144531 3.355469 7.5 7.5 7.5h33c4.140625 0 7.5-3.355469 7.5-7.5 0-4.140626-3.359375-7.5-7.5-7.5zm0 0"/><path d="m358.269531 77.460938h-33c-4.140625 0-7.5 3.359374-7.5 7.5 0 4.144531 3.359375 7.5 7.5 7.5h33c4.144531 0 7.5-3.355469 7.5-7.5 0-4.140626-3.355469-7.5-7.5-7.5zm0 0"/></svg>